<svg width="29" height="29" viewBox="0 0 29 29" fill="none" xmlns="http://www.w3.org/2000/svg">
<g clip-path="url(#clip0_29_1830)">
<path d="M24.554 24.5639H20.2909V17.8742C20.2909 16.279 20.2575 14.2289 18.0615 14.2289C15.8385 14.2289 15.4999 15.9592 15.4999 17.7562V24.563H11.2313V10.8079H15.3314V12.6842H15.3864C15.9592 11.6006 17.3527 10.4611 19.4316 10.4611C23.756 10.4611 24.5585 13.3084 24.5585 17.0104V24.563L24.554 24.5639ZM6.40873 8.92809C6.08291 8.92821 5.76027 8.86405 5.45929 8.73928C5.15831 8.61451 4.8849 8.43159 4.65472 8.20099C4.42454 7.9704 4.24211 7.69665 4.11789 7.39544C3.99367 7.09423 3.9301 6.77148 3.93081 6.44566C3.93134 5.95526 4.07728 5.47602 4.35016 5.06855C4.62304 4.66108 5.01061 4.34367 5.46387 4.15645C5.91713 3.96923 6.41573 3.92062 6.89662 4.01675C7.37751 4.11288 7.8191 4.34944 8.16555 4.69653C8.51201 5.04361 8.74777 5.48563 8.84302 5.96669C8.93828 6.44776 8.88876 6.94626 8.70072 7.39918C8.51268 7.85211 8.19457 8.2391 7.7866 8.51124C7.37863 8.78338 6.89914 8.92844 6.40873 8.92809ZM8.54708 24.5639H4.26948V10.8088H8.54708V24.5639ZM26.6942 0H2.12574C0.952077 0 0 0.928658 0 2.078V26.7464C0 27.8958 0.952077 28.8244 2.12574 28.8244H26.6897C27.8615 28.8244 28.8235 27.8958 28.8235 26.7464V2.078C28.8235 0.928658 27.8615 0 26.6897 0H26.6942Z" fill="#4573B5"/>
</g>
<defs>
<clipPath id="clip0_29_1830">
<rect width="28.8235" height="28.8235" fill="white"/>
</clipPath>
</defs>
</svg>
