<svg width="279" height="188" viewBox="0 0 279 188" fill="none" xmlns="http://www.w3.org/2000/svg">
<g clip-path="url(#clip0_117_5698)">
<g filter="url(#filter0_d_117_5698)">
<path d="M139.83 188L279 107.626V96.5463L139.17 25.6122L0 95.9923V107.094L139.83 188Z" fill="#402517"/>
<path d="M139.83 176.92L279 96.5464L139.17 15.6188L0 95.9923L139.83 176.92Z" fill="#A36F3F"/>
<path d="M139.83 188V176.92L0 95.9923V107.094L139.83 188Z" fill="#4D2C1B"/>
<path d="M139.83 176.92L279 96.5463V85.4449L139.17 14.5107L0 84.8909V95.9923L139.83 176.92Z" fill="#4D2B1C"/>
<path d="M139.83 165.818L279 85.4449L139.17 4.51733L0 84.8909L139.83 165.818Z" fill="#73402A"/>
<path d="M139.83 176.92V165.818L0 84.8909V95.9923L139.83 176.92Z" fill="#663925"/>
<path d="M271.075 90.0686L279 85.5088V80.9275L139.17 9.99339L131.245 4.58118V9.16238L271.075 90.0686Z" fill="#73402A"/>
<path d="M271.075 85.4875L279 80.9276L139.17 0L131.245 4.58121L271.075 85.4875Z" fill="#B36642"/>
<path d="M271.075 90.0686V85.4874L131.245 4.58118V9.16238L271.075 90.0686Z" fill="#945437"/>
<path d="M254.672 99.5506L262.597 94.9694V90.3882L122.767 19.4541L114.842 14.0419V18.6231L254.672 99.5506Z" fill="#663925"/>
<path d="M254.672 94.9695L262.597 90.3883L122.767 9.46069L114.842 14.0419L254.672 94.9695Z" fill="#B36642"/>
<path d="M254.672 99.5506V94.9694L114.842 14.0419V18.6231L254.672 99.5506Z" fill="#945437"/>
<path d="M238.269 109.011L246.194 104.43V99.8491L106.364 28.9149L98.4393 23.5027V28.1052L238.269 109.011Z" fill="#663925"/>
<path d="M238.269 104.43L246.194 99.849L106.364 18.9427L98.4393 23.5026L238.269 104.43Z" fill="#B36642"/>
<path d="M238.269 109.011V104.43L98.4393 23.5027V28.1052L238.269 109.011Z" fill="#945437"/>
<path d="M221.866 118.472L229.791 113.912V109.31L89.9608 38.3968L82.0363 32.9846V37.5658L221.866 118.472Z" fill="#663925"/>
<path d="M221.866 113.891L229.791 109.31L89.9608 28.4034L82.0363 32.9846L221.866 113.891Z" fill="#B36642"/>
<path d="M221.866 118.472V113.891L82.0363 32.9846V37.5658L221.866 118.472Z" fill="#945437"/>
<path d="M205.463 127.954L213.388 123.373V118.792L73.5366 47.8577L65.6333 42.4454V47.0266L205.463 127.954Z" fill="#663925"/>
<path d="M205.463 123.373L213.388 118.792L73.5366 37.8643L65.6333 42.4455L205.463 123.373Z" fill="#B36642"/>
<path d="M205.463 127.954V123.373L65.6333 42.4454V47.0266L205.463 127.954Z" fill="#945437"/>
<path d="M189.06 137.415L196.985 132.834V128.252L57.1335 57.3183L49.2303 51.9061V56.4873L189.06 137.415Z" fill="#663925"/>
<path d="M189.06 132.834L196.985 128.252L57.1335 47.3462L49.2303 51.9061L189.06 132.834Z" fill="#B36642"/>
<path d="M189.06 137.415V132.834L49.2303 51.9061V56.4873L189.06 137.415Z" fill="#945437"/>
<path d="M172.657 146.876L180.582 142.316V137.713L40.7305 66.7791L32.8273 61.3882V65.9694L172.657 146.876Z" fill="#663925"/>
<path d="M172.657 142.294L180.582 137.713L40.7305 56.807L32.8273 61.3882L172.657 142.294Z" fill="#B36642"/>
<path d="M172.657 146.876V142.294L32.8273 61.3882V65.9694L172.657 146.876Z" fill="#945437"/>
<path d="M156.255 156.358L164.179 151.776V147.195L24.3276 76.2611L16.4243 70.8489V75.4301L156.255 156.358Z" fill="#663925"/>
<path d="M156.255 151.755L164.179 147.195L24.3276 66.2677L16.4243 70.8489L156.255 151.755Z" fill="#B36642"/>
<path d="M156.255 156.358V151.755L16.4243 70.8489V75.4301L156.255 156.358Z" fill="#945437"/>
<path d="M139.852 165.818L147.776 161.237V156.656L7.92456 85.7218L0 80.3096V84.8908L139.852 165.818Z" fill="#663925"/>
<path d="M139.852 161.237L147.776 156.656L7.92456 75.7284L0 80.3096L139.852 161.237Z" fill="#B36642"/>
<path d="M139.852 165.818V161.237L0 80.3096V84.8908L139.852 165.818Z" fill="#945437"/>
</g>
</g>
<defs>
<filter id="filter0_d_117_5698" x="-4" y="0" width="287" height="196" filterUnits="userSpaceOnUse" color-interpolation-filters="sRGB">
<feFlood flood-opacity="0" result="BackgroundImageFix"/>
<feColorMatrix in="SourceAlpha" type="matrix" values="0 0 0 0 0 0 0 0 0 0 0 0 0 0 0 0 0 0 127 0" result="hardAlpha"/>
<feOffset dy="4"/>
<feGaussianBlur stdDeviation="2"/>
<feComposite in2="hardAlpha" operator="out"/>
<feColorMatrix type="matrix" values="0 0 0 0 0 0 0 0 0 0 0 0 0 0 0 0 0 0 0.25 0"/>
<feBlend mode="normal" in2="BackgroundImageFix" result="effect1_dropShadow_117_5698"/>
<feBlend mode="normal" in="SourceGraphic" in2="effect1_dropShadow_117_5698" result="shape"/>
</filter>
<clipPath id="clip0_117_5698">
<rect width="279" height="188" fill="white"/>
</clipPath>
</defs>
</svg>
