<svg width="66" height="82" viewBox="0 0 66 82" fill="none" xmlns="http://www.w3.org/2000/svg">
<path d="M47.6978 26.188H51.8228C52.2495 26.188 52.5963 25.8434 52.5963 25.4193V13.3755C52.5963 9.55997 49.4741 6.45679 45.6353 6.45679H20.1119C16.273 6.45679 13.1509 9.55997 13.1509 13.3755V25.4193C13.1509 25.8434 13.4977 26.188 13.9244 26.188H18.0494C18.4761 26.188 18.8228 25.8434 18.8228 25.4193V13.2474C18.8228 12.5414 19.4016 11.9662 20.1119 11.9662H23.4957C23.7457 11.9662 23.9816 12.0994 24.126 12.3224C25.0773 13.7907 26.543 14.6581 28.0641 14.6581H37.5967C39.1449 14.6927 40.6518 13.8189 41.6199 12.3224C41.7643 12.0994 42.0002 11.9662 42.2502 11.9662H45.634C46.3443 11.9662 46.9231 12.5414 46.9231 13.2474V25.4193C46.9231 25.8434 47.2698 26.188 47.6965 26.188H47.6978Z" fill="white"/>
<path d="M51.8228 50.7881H47.6978C47.2711 50.7881 46.9244 51.1327 46.9244 51.5568V63.7287C46.9244 64.4347 46.3456 65.01 45.6353 65.01H20.1119C19.4016 65.01 18.8228 64.4347 18.8228 63.7287V51.5568C18.8228 51.1327 18.4761 50.7881 18.0494 50.7881H13.9244C13.4977 50.7881 13.1509 51.1327 13.1509 51.5568V63.6006C13.1509 67.4161 16.273 70.5193 20.1119 70.5193H45.6353C49.4741 70.5193 52.5963 67.4161 52.5963 63.6006V51.5568C52.5963 51.1327 52.2495 50.7881 51.8228 50.7881Z" fill="white"/>
<path d="M58.1392 27.7256H46.9244C46.4977 27.7256 46.1509 28.0702 46.1509 28.4943V48.4818C46.1509 48.9059 46.4977 49.2506 46.9244 49.2506H58.1392C61.978 49.2506 65.1002 46.1474 65.1002 42.3318V34.6443C65.1002 30.8288 61.978 27.7256 58.1392 27.7256ZM59.4811 43.3261C58.892 43.9116 57.9355 43.9116 57.3464 43.3261L55.6127 41.6028C55.1911 41.7425 54.7413 41.8181 54.272 41.8181C51.9221 41.8181 50.0181 39.9257 50.0181 37.5899C50.0181 35.2542 51.9221 33.3618 54.272 33.3618C56.622 33.3618 58.5259 35.2542 58.5259 37.5899C58.5259 38.3561 58.3197 39.0736 57.9613 39.6925L59.4811 41.2031C60.0702 41.7886 60.0702 42.7393 59.4811 43.3248V43.3261Z" fill="white"/>
<path d="M7.60797 49.2506H43.8306C44.2573 49.2506 44.6041 48.9059 44.6041 48.4818V28.4943C44.6041 28.0702 44.2573 27.7256 43.8306 27.7256H7.60797C3.76914 27.7256 0.647034 30.8288 0.647034 34.6443V42.3318C0.647034 46.1474 3.76914 49.2506 7.60797 49.2506ZM6.83453 34.7725C6.83453 33.923 7.52676 33.235 8.38141 33.235C9.23606 33.235 9.92828 33.923 9.92828 34.7725V42.2037C9.92828 43.0532 9.23606 43.7412 8.38141 43.7412C7.52676 43.7412 6.83453 43.0532 6.83453 42.2037V34.7725Z" fill="white"/>
</svg>
