<svg width="15" height="15" viewBox="0 0 15 15" fill="none" xmlns="http://www.w3.org/2000/svg">
<path d="M12.9146 11.7318C12.9146 11.7318 12.1904 12.4431 12.013 12.6516C11.7239 12.9601 11.3833 13.1058 10.9367 13.1058C10.8938 13.1058 10.848 13.1058 10.8051 13.103C9.95496 13.0487 9.16496 12.7173 8.57247 12.4345C6.9524 11.6519 5.52983 10.5407 4.34769 9.13247C3.37165 7.95846 2.71904 6.87301 2.28683 5.70757C2.02064 4.99631 1.92332 4.44216 1.96625 3.91942C1.99487 3.58522 2.12368 3.30814 2.36125 3.07105L3.3373 2.097C3.47755 1.9656 3.62639 1.89419 3.77237 1.89419C3.9527 1.89419 4.09867 2.00274 4.19027 2.09414C4.19313 2.097 4.19599 2.09986 4.19885 2.10271C4.37346 2.26553 4.53947 2.43406 4.71407 2.61402C4.8028 2.70543 4.8944 2.79683 4.98599 2.8911L5.7674 3.67091C6.07081 3.9737 6.07081 4.25363 5.7674 4.55642C5.68439 4.63925 5.60425 4.72209 5.52124 4.80207C5.28081 5.04773 5.46968 4.85924 5.22066 5.08204C5.21494 5.08775 5.20921 5.09061 5.20635 5.09632C4.96019 5.34198 5.00599 5.58192 5.05751 5.74474C5.06037 5.75331 5.06323 5.76188 5.0661 5.77045C5.26932 6.26176 5.55555 6.72451 5.99062 7.2758L5.99349 7.27866C6.78348 8.24986 7.61642 9.00682 8.53522 9.58668C8.65257 9.66095 8.77279 9.72094 8.88728 9.77807C8.99033 9.82948 9.08764 9.87804 9.17065 9.92946C9.1821 9.93517 9.19355 9.94374 9.205 9.94945C9.30232 9.99801 9.39391 10.0209 9.48837 10.0209C9.72594 10.0209 9.87478 9.87233 9.92344 9.82377L10.4845 9.26386C10.5818 9.16675 10.7364 9.04963 10.9167 9.04963C11.0942 9.04963 11.2401 9.16103 11.3289 9.25815C11.3317 9.26101 11.3317 9.26101 11.3346 9.26386L12.9117 10.8378C13.2065 11.1291 12.9146 11.7318 12.9146 11.7318Z" stroke="black" stroke-linecap="round" stroke-linejoin="round"/>
</svg>
