<svg width="176" height="64" viewBox="0 0 176 64" fill="none" xmlns="http://www.w3.org/2000/svg">
<g filter="url(#filter0_b_29_1602)">
<path d="M0 20C0 8.95431 8.9543 0 20 0H156C167.046 0 176 8.95431 176 20V44C176 55.0457 167.046 64 156 64H20C8.95431 64 0 55.0457 0 44V20Z" fill="url(#paint0_linear_29_1602)"/>
<path d="M1 20C1 9.50659 9.50659 1 20 1H156C166.493 1 175 9.50659 175 20V44C175 54.4934 166.493 63 156 63H20C9.50659 63 1 54.4934 1 44V20Z" stroke="url(#paint1_linear_29_1602)" stroke-width="2"/>
</g>
<defs>
<filter id="filter0_b_29_1602" x="-50" y="-50" width="276" height="164" filterUnits="userSpaceOnUse" color-interpolation-filters="sRGB">
<feFlood flood-opacity="0" result="BackgroundImageFix"/>
<feGaussianBlur in="BackgroundImageFix" stdDeviation="25"/>
<feComposite in2="SourceAlpha" operator="in" result="effect1_backgroundBlur_29_1602"/>
<feBlend mode="normal" in="SourceGraphic" in2="effect1_backgroundBlur_29_1602" result="shape"/>
</filter>
<linearGradient id="paint0_linear_29_1602" x1="-14.5756" y1="-17.6842" x2="113.956" y2="110.403" gradientUnits="userSpaceOnUse">
<stop stop-color="#EFEFEF" stop-opacity="0.6"/>
<stop offset="1" stop-color="#EFEFEF" stop-opacity="0.2"/>
</linearGradient>
<linearGradient id="paint1_linear_29_1602" x1="-7.28779" y1="-17.6842" x2="104.432" y2="121.462" gradientUnits="userSpaceOnUse">
<stop stop-color="#DDFCA9" stop-opacity="0.6"/>
<stop offset="1" stop-color="#D2EFA3" stop-opacity="0.1"/>
</linearGradient>
</defs>
</svg>
