<svg width="61" height="77" viewBox="0 0 61 77" fill="none" xmlns="http://www.w3.org/2000/svg">
<path fill-rule="evenodd" clip-rule="evenodd" d="M56.4221 6.3692H44.6718V5.55072C44.6718 4.8863 44.1299 4.34798 43.461 4.34798H36.9481C35.9163 1.74613 33.3867 0 30.5 0C27.6133 0 25.0845 1.74613 24.0519 4.34798H17.539C16.8701 4.34798 16.3282 4.8863 16.3282 5.55072V6.3692H4.57794C2.05424 6.3692 0 8.40903 0 10.9169V72.4523C0 74.9593 2.05338 77 4.57794 77H56.4221C58.9458 77 61 74.9602 61 72.4523V10.9169C61 8.40903 58.9458 6.3692 56.4221 6.3692ZM18.7497 6.75431H24.9363C25.496 6.75431 25.9826 6.37343 26.1138 5.83342C26.6037 3.81559 28.4074 2.40633 30.5 2.40633C32.5926 2.40633 34.3963 3.81559 34.8862 5.83258C35.0174 6.37258 35.504 6.75347 36.0637 6.75347H42.2503V13.0423H18.7497V6.75431ZM43.461 15.4494C44.1299 15.4494 44.6718 14.9111 44.6718 14.2467V13.4282H53.8941V69.941H7.1059V13.4274H16.3282V14.2458C16.3282 14.9103 16.8701 15.4486 17.539 15.4486L43.461 15.4494ZM58.5777 72.4514C58.5777 73.6322 57.6106 74.5928 56.4221 74.5928H4.57794C3.38936 74.5928 2.42231 73.6322 2.42231 72.4514V10.9169C2.42231 9.7362 3.38936 8.77553 4.57794 8.77553H16.3282V11.0219H5.89517C5.22633 11.0219 4.68444 11.5602 4.68444 12.2246V71.1437C4.68444 71.8082 5.22633 72.3465 5.89517 72.3465H55.1057C55.7745 72.3465 56.3164 71.8082 56.3164 71.1437V12.2246C56.3164 11.5602 55.7745 11.0219 55.1057 11.0219H44.6718V8.77553H56.4221C57.6106 8.77553 58.5777 9.7362 58.5777 10.9169V72.4514ZM34.3358 40.4421H26.6642C21.823 40.4421 17.884 44.355 17.884 49.1643V52.4517C15.9235 52.9816 14.4776 54.7649 14.4776 56.8776C14.4776 59.4066 16.5489 61.4642 19.0948 61.4642C21.6406 61.4642 23.7119 59.4066 23.7119 56.8776C23.7119 54.7649 22.266 52.9816 20.3055 52.4517V49.1643C20.3055 45.6813 23.1581 42.8476 26.6633 42.8476H34.335C39.1762 42.8476 43.1151 38.9346 43.1151 34.1254V30.9158C45.0756 30.3859 46.5215 28.6026 46.5215 26.4899C46.5215 23.9609 44.4502 21.9033 41.9044 21.9033C39.3585 21.9033 37.2872 23.9609 37.2872 26.4899C37.2872 28.6026 38.7331 30.3859 40.6937 30.9158V34.1262C40.6937 37.6092 37.8419 40.4421 34.3358 40.4421ZM21.2904 56.8784C21.2904 58.0812 20.3055 59.0596 19.0956 59.0596C17.8849 59.0596 16.9008 58.0812 16.9008 56.8784C16.9008 55.6757 17.8857 54.6981 19.0956 54.6981C20.3055 54.6972 21.2904 55.6757 21.2904 56.8784ZM39.7096 26.4899C39.7096 25.2872 40.6945 24.3096 41.9044 24.3096C43.1151 24.3096 44.0992 25.288 44.0992 26.4899C44.0992 27.6927 43.1143 28.6703 41.9044 28.6703C40.6945 28.6703 39.7096 27.6927 39.7096 26.4899ZM17.804 25.2068C18.2768 24.737 19.0437 24.737 19.5165 25.2068L22.1229 27.7959L24.7292 25.2068C25.2021 24.737 25.9689 24.737 26.4418 25.2068C26.9147 25.6765 26.9147 26.4383 26.4418 26.9081L23.8355 29.4972L26.4418 32.0864C26.9147 32.5561 26.9147 33.3179 26.4418 33.7876C26.2049 34.0221 25.8956 34.1397 25.5855 34.1397C25.2754 34.1397 24.9652 34.0221 24.7292 33.7876L22.1229 31.1985L19.5165 33.7876C19.0437 34.2574 18.2768 34.2574 17.804 33.7876C17.3311 33.3179 17.3311 32.5561 17.804 32.0864L20.4103 29.4972L17.804 26.9081C17.3302 26.4383 17.3302 25.6765 17.804 25.2068ZM43.1961 51.2811L40.5897 53.8703L43.1961 56.4594C43.6689 56.9292 43.6689 57.691 43.1961 58.1607C42.9592 58.3952 42.6499 58.5128 42.3398 58.5128C42.0296 58.5128 41.7195 58.3952 41.4835 58.1607L38.8771 55.5716L36.2708 58.1607C35.7979 58.6305 35.0311 58.6305 34.5582 58.1607C34.0853 57.691 34.0853 56.9292 34.5582 56.4594L37.1646 53.8703L34.5582 51.2811C34.0853 50.8114 34.0853 50.0496 34.5582 49.5799C35.0311 49.1101 35.7979 49.1101 36.2708 49.5799L38.8771 52.169L41.4835 49.5799C41.9564 49.1101 42.7232 49.1101 43.1961 49.5799C43.6698 50.0496 43.6698 50.8114 43.1961 51.2811ZM32.0141 5.86389C32.0141 6.69252 31.3341 7.36796 30.5 7.36796C29.6659 7.36796 28.986 6.69252 28.986 5.86389C28.986 5.03526 29.6659 4.35983 30.5 4.35983C31.3341 4.35983 32.0141 5.03611 32.0141 5.86389Z" fill="white"/>
</svg>
