<svg width="73" height="80" viewBox="0 0 73 80" fill="none" xmlns="http://www.w3.org/2000/svg">
<path fill-rule="evenodd" clip-rule="evenodd" d="M59.4187 40.9378H41.2159V47.0649H58.8647C59.0457 47.065 59.2228 47.1166 59.375 47.2137C59.5273 47.3107 59.6484 47.4491 59.7239 47.6124L65.5525 57.6409C66.8316 57.1715 68.2401 57.1879 69.5077 57.6871C70.7753 58.1863 71.8125 59.1329 72.4203 60.3453C73.028 61.5577 73.1634 62.9504 72.8005 64.2559C72.4375 65.5614 71.6018 66.6877 70.4539 67.4186C69.3059 68.1494 67.9265 68.4333 66.5807 68.2157C65.2348 67.9981 64.0174 67.2943 63.162 66.2395C62.3067 65.1847 61.8739 63.8533 61.9466 62.5009C62.0193 61.1484 62.5924 59.8703 63.5559 58.912C63.6753 58.7935 63.7988 58.6815 63.9264 58.576L58.3278 48.9396H41.2159V55.0676H47.1224C47.3033 55.0674 47.4804 55.1189 47.6325 55.216C47.7847 55.3131 47.9056 55.4517 47.9806 55.6151L53.8102 65.6435C55.0896 65.1739 56.4987 65.1903 57.7667 65.6895C59.0348 66.1888 60.0724 67.1358 60.6804 68.3486C61.2884 69.5614 61.4239 70.9545 61.0609 72.2605C60.6978 73.5664 59.8619 74.6932 58.7135 75.4243C57.5651 76.1554 56.1853 76.4394 54.8389 76.2216C53.4926 76.0039 52.2747 75.2999 51.4192 74.2447C50.5636 73.1895 50.1306 71.8576 50.2034 70.5047C50.2762 69.1518 50.8497 67.8733 51.8136 66.9147C51.9317 66.7973 52.0543 66.6853 52.1832 66.5787L46.5819 56.9422H40.1939C35.67 56.9422 31.3314 55.1572 28.1325 51.98C24.9337 48.8027 23.1366 44.4934 23.1366 40C23.1366 35.5066 24.9337 31.1973 28.1325 28.02C31.3314 24.8428 35.67 23.0578 40.1939 23.0578H46.5819L52.1832 13.4222C52.0543 13.3156 51.9317 13.2036 51.8136 13.0862C50.8548 12.1316 50.2847 10.8588 50.2127 9.5122C50.1407 8.16561 50.572 6.84006 51.4237 5.78994C52.2754 4.73982 53.4876 4.03912 54.8276 3.8223C56.1676 3.60549 57.541 3.88783 58.6842 4.61516C59.8274 5.34248 60.66 6.46354 61.022 7.7632C61.3841 9.06285 61.2502 10.4495 60.6459 11.6571C60.0417 12.8647 59.0098 13.8081 57.7482 14.3063C56.4866 14.8045 55.0842 14.8223 53.8102 14.3564L47.9806 24.3849C47.9054 24.5482 47.7845 24.6866 47.6324 24.7837C47.4802 24.8808 47.3032 24.9324 47.1224 24.9324H41.2159V31.0596H58.3278L63.9264 21.4222C63.7976 21.3156 63.6741 21.2036 63.5559 21.0862C62.5985 20.1325 62.0294 18.8612 61.9578 17.5162C61.8862 16.1713 62.3171 14.8474 63.1679 13.7987C64.0187 12.7499 65.2295 12.0502 66.5678 11.8338C67.9062 11.6173 69.2779 11.8993 70.4197 12.6258C71.5615 13.3522 72.3931 14.4719 72.7548 15.7699C73.1165 17.0679 72.9828 18.4529 72.3795 19.6591C71.7762 20.8653 70.7457 21.8077 69.4857 22.3055C68.2258 22.8033 66.8251 22.8214 65.5525 22.3564L59.7239 32.3867C59.6486 32.5502 59.5276 32.6889 59.3753 32.7861C59.223 32.8833 59.0458 32.935 58.8647 32.9351H41.2159V39.0622H59.4187C59.6551 37.7103 60.3934 36.4956 61.4877 35.6582C62.5821 34.8208 63.9529 34.4215 65.3293 34.5394C66.7056 34.6572 67.9874 35.2835 68.9214 36.2946C69.8554 37.3056 70.3736 38.6278 70.3736 40C70.3736 41.3722 69.8554 42.6944 68.9214 43.7054C67.9874 44.7165 66.7056 45.3428 65.3293 45.4606C63.9529 45.5785 62.5821 45.1792 61.4877 44.3418C60.3934 43.5044 59.6551 42.2897 59.4187 40.9378ZM40.2717 80C40.5221 80 40.7623 79.9012 40.9393 79.7253C41.1164 79.5495 41.2159 79.3109 41.2159 79.0622V62.8036C41.2156 62.555 41.1161 62.3167 40.939 62.141C40.762 61.9653 40.522 61.8667 40.2717 61.8667C34.4329 61.8667 28.8333 59.5629 24.7046 55.4621C20.576 51.3613 18.2565 45.7994 18.2565 40C18.2565 34.2006 20.576 28.6387 24.7046 24.5379C28.8333 20.4371 34.4329 18.1333 40.2717 18.1333C40.5221 18.1333 40.7623 18.0345 40.9393 17.8587C41.1164 17.6828 41.2159 17.4443 41.2159 17.1956V0.937779C41.2159 0.689065 41.1164 0.450538 40.9393 0.27467C40.7623 0.0988028 40.5221 1.51386e-06 40.2717 1.51386e-06H34.3437C33.7262 -0.000665198 33.129 0.218906 32.6607 0.618756C32.1924 1.01861 31.8843 1.57216 31.7923 2.17867L30.4902 10.5982C29.7581 10.8353 29.0422 11.0993 28.3423 11.3902C27.6354 11.6812 26.9406 11.9976 26.2581 12.3396L19.3403 7.29778C18.8441 6.93339 18.2325 6.75839 17.6172 6.80474C17.0019 6.85109 16.4239 7.11568 15.9888 7.55022L7.60241 15.8809C7.16445 16.3128 6.89765 16.8869 6.85082 17.4982C6.80399 18.1094 6.98024 18.717 7.34735 19.2098L12.4243 26.0818C12.08 26.7597 11.7614 27.4498 11.4685 28.152C11.1785 28.8447 10.9127 29.5558 10.6711 30.2853L2.19347 31.5742C1.58284 31.666 1.02562 31.9723 0.623101 32.4375C0.220581 32.9027 -0.000515501 33.4959 9.02558e-07 34.1093V45.8907C-0.000515501 46.5041 0.220581 47.0973 0.623101 47.5625C1.02562 48.0277 1.58284 48.334 2.19347 48.4258L10.6702 49.7182C10.9118 50.4453 11.1776 51.1564 11.4676 51.8516C11.7576 52.5467 12.0761 53.2364 12.4234 53.9209L7.34735 60.792C6.98031 61.2846 6.80408 61.8921 6.85092 62.5032C6.89775 63.1143 7.16451 63.6882 7.60241 64.12L15.9888 72.4507C16.4236 72.8857 17.0016 73.1507 17.617 73.1972C18.2324 73.2437 18.8441 73.0686 19.3403 72.704L26.2598 67.6613C26.943 68.0033 27.638 68.3203 28.345 68.6124C29.0425 68.8998 29.7566 69.1633 30.4875 69.4027L31.7896 77.8231C31.8826 78.4295 32.1914 78.9827 32.6601 79.3821C33.1288 79.7816 33.7262 80.0008 34.3437 80H40.2717Z" fill="white"/>
</svg>
