<svg width="70" height="70" viewBox="0 0 70 70" fill="none" xmlns="http://www.w3.org/2000/svg">
<path d="M56.2841 55.576L53.4656 50.9806C52.8422 49.9645 51.9117 49.4051 50.8454 49.4051H44.1221V48.8874C44.1221 47.4817 42.9779 46.3375 41.5721 46.3375H21.6228C20.217 46.3375 19.0728 47.4817 19.0728 48.8874V64.6084C19.0728 66.0142 20.217 67.1584 21.6228 67.1584H24.969C25.4566 68.7995 26.9782 70 28.7759 70C30.5736 70 32.0951 68.7995 32.5827 67.1584H45.4121C45.8997 68.7995 47.4212 70 49.219 70C51.0167 70 52.5382 68.7995 53.0258 67.1584H54.3783C55.5889 67.1584 56.5734 66.1739 56.5734 64.9633V56.7533C56.5734 56.3899 56.5071 56.0628 56.3636 55.7256C56.3396 55.6732 56.3134 55.6238 56.2841 55.576ZM28.7751 67.7425C27.8307 67.7425 27.0623 66.974 27.0623 66.0296C27.0623 65.0853 27.8307 64.3168 28.7751 64.3168C29.7195 64.3168 30.488 65.0853 30.488 66.0296C30.488 66.974 29.7203 67.7425 28.7751 67.7425ZM28.7751 62.0585C26.9774 62.0585 25.4559 63.259 24.9683 64.9001H21.622C21.4639 64.9001 21.3304 64.7666 21.3304 64.6084V48.8874C21.3304 48.7293 21.4639 48.5958 21.622 48.5958H41.5713C41.7295 48.5958 41.863 48.7293 41.863 48.8874V64.9001H32.5812C32.0943 63.259 30.5728 62.0585 28.7751 62.0585ZM49.2174 67.7425C48.273 67.7425 47.5046 66.974 47.5046 66.0296C47.5046 65.0853 48.273 64.3168 49.2174 64.3168C50.1618 64.3168 50.9303 65.0853 50.9303 66.0296C50.9303 66.974 50.1626 67.7425 49.2174 67.7425ZM53.0243 64.9001C52.5366 63.259 51.0151 62.0585 49.2174 62.0585C47.4197 62.0585 45.8982 63.259 45.4106 64.9001H44.1213V51.6635H50.8446C50.9411 51.6635 51.235 51.6634 51.5406 52.1611L54.3027 56.6654C54.3105 56.6947 54.3128 56.7186 54.3128 56.7533V60.7114H53.6384C53.015 60.7114 52.5096 61.2167 52.5096 61.8401C52.5096 62.4635 53.015 62.9689 53.6384 62.9689H54.3128V64.9001H53.0243ZM52.8939 58.4222C53.103 58.1059 53.1392 57.7062 52.9919 57.3575L51.2011 53.1402C51.0244 52.7228 50.6147 52.4527 50.1618 52.4527H46.0247C45.4013 52.4527 44.896 52.9581 44.896 53.5815V57.7988C44.896 58.4222 45.4013 58.9276 46.0247 58.9276H51.9526C52.3314 58.9283 52.6848 58.7378 52.8939 58.4222ZM47.1535 56.67V54.7111H49.4142L50.2459 56.67H47.1535ZM21.6567 24.7057V6.23023C21.6567 5.71484 21.4639 5.25037 21.1005 4.88697L16.772 0.55937C16.4079 0.195201 15.9434 0.00231465 15.4288 0.00231465H1.89957C0.851795 0.00231465 0 0.854872 0 1.90263V24.7064C0 25.7542 0.852567 26.6067 1.89957 26.6067H19.7572C20.805 26.606 21.6567 25.7534 21.6567 24.7057ZM16.877 3.85696L17.8021 4.78204H16.877V3.85696ZM2.25757 24.3477V2.25986H14.6194V5.52504C14.6194 6.35985 15.2991 7.03958 16.134 7.03958H19.3992V24.3477H2.25757ZM17.3901 15.8051C17.3901 16.4285 16.8847 16.9339 16.2613 16.9339H5.39548C4.77206 16.9339 4.26669 16.4285 4.26669 15.8051C4.26669 15.1817 4.77206 14.6763 5.39548 14.6763H16.2613C16.8847 14.6756 17.3901 15.1817 17.3901 15.8051ZM17.3901 10.8032C17.3901 11.4266 16.8847 11.9319 16.2613 11.9319H5.39548C4.77206 11.9319 4.26669 11.4266 4.26669 10.8032C4.26669 10.1798 4.77206 9.67441 5.39548 9.67441H16.2613C16.8847 9.67364 17.3901 10.179 17.3901 10.8032ZM17.3901 20.807C17.3901 21.4304 16.8847 21.9358 16.2613 21.9358H5.39548C4.77206 21.9358 4.26669 21.4304 4.26669 20.807C4.26669 20.1836 4.77206 19.6783 5.39548 19.6783H16.2613C16.8847 19.6775 17.3901 20.1836 17.3901 20.807ZM4.26592 5.80125C4.26592 5.17784 4.77129 4.67248 5.39471 4.67248H12.2222C12.8456 4.67248 13.351 5.17784 13.351 5.80125C13.351 6.42466 12.8456 6.93002 12.2222 6.93002H5.39548C4.77206 6.93002 4.26592 6.42466 4.26592 5.80125ZM69.2755 8.91135L68.1166 8.4654C67.9299 7.85279 67.6846 7.26024 67.3829 6.6947L67.8875 5.55898C68.0773 5.13232 67.9839 4.63236 67.6537 4.30214L65.6978 2.34627C65.3676 2.01605 64.8684 1.92346 64.441 2.11249L63.3052 2.61708C62.7397 2.31464 62.1479 2.06928 61.5353 1.88334L61.0893 0.72371C60.9219 0.287786 60.5029 0 60.0354 0H57.2701C56.8033 0 56.3844 0.287786 56.2162 0.72371L55.7702 1.88334C55.1576 2.07006 54.5658 2.31541 54.0003 2.61708L52.8638 2.11249C52.4371 1.92269 51.9379 2.01528 51.6069 2.34627L49.6518 4.30214C49.3216 4.63236 49.229 5.13155 49.418 5.55898L49.9226 6.6947C49.6202 7.26024 49.3748 7.85202 49.1889 8.46462L48.03 8.91058C47.5941 9.078 47.3063 9.49695 47.3063 9.96451V12.7297C47.3063 13.1965 47.5941 13.6155 48.03 13.7837L49.1889 14.2296C49.3756 14.8422 49.6209 15.4348 49.9226 16.0003L49.418 17.136C49.2282 17.5627 49.3216 18.0627 49.6518 18.3929L51.6069 20.348C51.9372 20.6782 52.4371 20.7708 52.8638 20.5817L54.0003 20.0772C54.5658 20.3796 55.1576 20.625 55.7702 20.8109L56.2162 21.9705C56.3836 22.4065 56.8026 22.6942 57.2701 22.6942H60.0354C60.5022 22.6942 60.9211 22.4065 61.0893 21.9705L61.5353 20.8117C62.1479 20.625 62.7405 20.3796 63.306 20.0772L64.4417 20.5817C64.8684 20.7715 65.3684 20.6782 65.6986 20.348L67.6537 18.3929C67.9839 18.0627 68.0765 17.5627 67.8875 17.136L67.3829 15.9995C67.6846 15.434 67.9307 14.8422 68.1166 14.2296L69.2763 13.7837C69.7122 13.6162 70 13.1973 70 12.7297V9.96451C69.9992 9.4985 69.7114 9.07955 69.2755 8.91135ZM67.7409 11.9551L66.771 12.3285C66.4239 12.462 66.1646 12.7583 66.0782 13.1209C65.8915 13.9063 65.5813 14.654 65.157 15.3437C64.9618 15.6608 64.9355 16.0535 65.0867 16.3938L65.5088 17.3443L64.6493 18.2038L63.6987 17.7818C63.3585 17.6306 62.9657 17.6576 62.6486 17.852C61.9596 18.2764 61.2112 18.5865 60.425 18.774C60.0632 18.8604 59.7661 19.1189 59.6326 19.4669L59.2592 20.4359H58.0455L57.6721 19.4661C57.5386 19.1189 57.2424 18.8597 56.8797 18.7732C56.0943 18.5865 55.3466 18.2764 54.6569 17.852C54.3398 17.6568 53.947 17.6306 53.6068 17.7818L52.6562 18.2038L51.7975 17.3451L52.2195 16.3946C52.3708 16.0543 52.3445 15.6616 52.1493 15.3445C51.725 14.6555 51.4148 13.9071 51.2273 13.1217C51.1409 12.7598 50.8817 12.4628 50.5345 12.3293L49.5654 11.9559V10.7407L50.5352 10.3673C50.8824 10.2338 51.1417 9.9375 51.2281 9.57488C51.4148 8.78944 51.725 8.04182 52.1493 7.35206C52.3445 7.03495 52.3708 6.64223 52.2195 6.30198L51.7975 5.35144L52.657 4.49194L53.6076 4.91397C53.9478 5.0652 54.3405 5.03896 54.6576 4.84376C55.3474 4.41941 56.0951 4.10925 56.8805 3.92254C57.2424 3.83612 57.5394 3.57688 57.6729 3.22969L58.0463 2.25986H59.2615L59.6349 3.22969C59.7684 3.57688 60.0647 3.83612 60.4273 3.92254C61.2128 4.10925 61.9604 4.41941 62.6502 4.84376C62.9673 5.03896 63.36 5.0652 63.7003 4.91397L64.6508 4.49194L65.5103 5.35144L65.0883 6.30121C64.9371 6.64146 64.9633 7.03418 65.1585 7.35128C65.5829 8.04105 65.893 8.78867 66.0805 9.57488C66.1669 9.93673 66.4262 10.2338 66.7734 10.3673L67.7424 10.7407V11.9551H67.7409ZM58.6528 5.39619C55.3706 5.39619 52.701 8.06651 52.701 11.3479C52.701 14.6293 55.3713 17.2996 58.6528 17.2996C61.9342 17.2996 64.6045 14.6293 64.6045 11.3479C64.6045 8.06651 61.9349 5.39619 58.6528 5.39619ZM58.6528 15.042C56.6159 15.042 54.9586 13.3848 54.9586 11.3479C54.9586 9.31101 56.6159 7.65373 58.6528 7.65373C60.6897 7.65373 62.347 9.31101 62.347 11.3479C62.347 13.3848 60.6897 15.042 58.6528 15.042ZM45.2061 19.571H30.4386C30.0266 19.571 29.6477 19.7948 29.4494 20.1559L25.7576 26.8675C25.5346 27.2726 25.5816 27.7733 25.8756 28.1305L36.9513 41.5524C37.1658 41.8124 37.4852 41.9628 37.8223 41.9628C38.1595 41.9628 38.4789 41.8124 38.6934 41.5524L49.7691 28.1298C50.0638 27.7726 50.1109 27.2726 49.8871 26.8668L46.1952 20.1551C45.997 19.7955 45.6174 19.571 45.2061 19.571ZM36.0393 26.2827L37.8216 23.043L39.6039 26.2827H36.0393ZM40.0321 28.541L37.8216 36.5774L35.6111 28.541H40.0321ZM39.7312 21.8293H43.2957L41.5135 25.0691L39.7312 21.8293ZM34.1297 25.0691L32.3474 21.8293H35.912L34.1297 25.0691ZM32.2201 26.2827H28.6555L30.4378 23.043L32.2201 26.2827ZM33.2694 28.541L35.3333 36.0451L29.1408 28.541H33.2694ZM42.3745 28.541H46.5023L40.3098 36.0451L42.3745 28.541ZM43.4231 26.2827L45.2053 23.043L46.9876 26.2827H43.4231ZM24.6959 6.74022C24.3209 6.2418 24.4212 5.53429 24.9196 5.15932C27.8546 2.95193 31.3513 1.5971 35.0324 1.24065C37.7012 0.982177 40.3754 1.26071 42.9053 2.04382L42.8459 1.94507C42.5257 1.41039 42.6993 0.716766 43.234 0.396574C43.7687 0.076383 44.4623 0.249981 44.7825 0.784662L46.5756 3.77826C46.7539 4.07607 46.7855 4.43947 46.6613 4.76352C46.537 5.08757 46.2701 5.33601 45.9383 5.43785L42.6021 6.46169C42.4918 6.49564 42.3799 6.51184 42.2704 6.51184C41.7874 6.51184 41.3406 6.19937 41.1917 5.71407C41.0089 5.11766 41.3437 4.48654 41.9401 4.30368L42.2487 4.20878C36.8625 2.5515 30.8336 3.53676 26.2768 6.96474C26.0731 7.11751 25.8355 7.19158 25.5994 7.19158C25.256 7.1908 24.9181 7.03495 24.6959 6.74022ZM62.3223 26.6584C62.7667 30.304 62.1919 34.0097 60.6596 37.3752C59.5485 39.8156 57.9699 41.9921 56.0272 43.7914L56.1421 43.7898C56.7655 43.7752 57.2794 44.2767 57.2894 44.9009C57.2995 45.525 56.8018 46.0381 56.1784 46.0481L52.6886 46.1045C52.6825 46.1045 52.6763 46.1045 52.6701 46.1045C52.3299 46.1045 52.0074 45.9509 51.7929 45.6855C51.5745 45.4155 51.492 45.0606 51.5699 44.7226L52.3515 41.3217C52.4911 40.7137 53.0968 40.3341 53.7048 40.4745C54.3128 40.6142 54.6916 41.2198 54.552 41.8278L54.4794 42.1426C58.6072 38.3065 60.7691 32.5932 60.0786 26.9323C60.003 26.3136 60.4435 25.7503 61.0623 25.6747C61.685 25.5999 62.2467 26.0397 62.3223 26.6584ZM16.9696 49.3087C16.7466 49.5934 16.4148 49.7415 16.08 49.7415C15.8369 49.7415 15.5916 49.6636 15.3848 49.5016C12.493 47.2379 10.2786 44.2111 8.98243 40.7484C8.04191 38.237 7.61909 35.5821 7.72094 32.9365L7.6407 33.0191C7.20709 33.4673 6.49263 33.4789 6.04435 33.0445C5.59608 32.6109 5.58451 31.8965 6.01889 31.4482L8.4462 28.9407C8.6877 28.6915 9.03027 28.5672 9.37515 28.6035C9.72004 28.6398 10.0294 28.8327 10.2138 29.1274L12.0663 32.0855C12.3973 32.614 12.2368 33.3107 11.7083 33.6417C11.5224 33.7582 11.3148 33.8137 11.1104 33.8137C10.7346 33.8137 10.3666 33.6263 10.1521 33.2837L9.98082 33.0098C9.77405 38.6413 12.2862 44.2096 16.7767 47.7239C17.2674 48.1082 17.3538 48.818 16.9696 49.3087Z" fill="white"/>
</svg>
