<svg width="76" height="75" viewBox="0 0 76 75" fill="none" xmlns="http://www.w3.org/2000/svg">
<path fill-rule="evenodd" clip-rule="evenodd" d="M0 0H34.014V34.015H0V0ZM41.417 0H75.428V34.015H41.414V0H41.417ZM57.282 21.421V22.031C57.2775 22.1836 57.3036 22.3356 57.3589 22.4779C57.4142 22.6202 57.4975 22.75 57.6038 22.8596C57.7102 22.9691 57.8374 23.0562 57.9781 23.1157C58.1187 23.1751 58.2698 23.2058 58.4225 23.2058C58.5752 23.2058 58.7263 23.1751 58.8669 23.1157C59.0076 23.0562 59.1348 22.9691 59.2412 22.8596C59.3475 22.75 59.4308 22.6202 59.4861 22.4779C59.5414 22.3356 59.5675 22.1836 59.563 22.031V21.421C59.5675 21.2684 59.5414 21.1164 59.4861 20.9741C59.4308 20.8318 59.3475 20.702 59.2412 20.5924C59.1348 20.4829 59.0076 20.3958 58.8669 20.3363C58.7263 20.2769 58.5752 20.2462 58.4225 20.2462C58.2698 20.2462 58.1187 20.2769 57.9781 20.3363C57.8374 20.3958 57.7102 20.4829 57.6038 20.5924C57.4975 20.702 57.4142 20.8318 57.3589 20.9741C57.3036 21.1164 57.2775 21.2684 57.282 21.421ZM57.282 16.015V19.025C57.2775 19.1776 57.3036 19.3296 57.3589 19.4719C57.4142 19.6142 57.4975 19.744 57.6038 19.8536C57.7102 19.9631 57.8374 20.0502 57.9781 20.1097C58.1187 20.1691 58.2698 20.1998 58.4225 20.1998C58.5752 20.1998 58.7263 20.1691 58.8669 20.1097C59.0076 20.0502 59.1348 19.9631 59.2412 19.8536C59.3475 19.744 59.4308 19.6142 59.4861 19.4719C59.5414 19.3296 59.5675 19.1776 59.563 19.025V16.015C59.5675 15.8624 59.5414 15.7104 59.4861 15.5681C59.4308 15.4258 59.3475 15.296 59.2412 15.1864C59.1348 15.0769 59.0076 14.9898 58.8669 14.9303C58.7263 14.8709 58.5752 14.8402 58.4225 14.8402C58.2698 14.8402 58.1187 14.8709 57.9781 14.9303C57.8374 14.9898 57.7102 15.0769 57.6038 15.1864C57.4975 15.296 57.4142 15.4258 57.3589 15.5681C57.3036 15.7104 57.2775 15.8624 57.282 16.015ZM59.388 8.826C59.2994 8.68805 59.1829 8.57019 59.046 8.48C58.9208 8.39796 58.7807 8.34141 58.6337 8.31359C58.4866 8.28577 58.3355 8.28723 58.189 8.31788C58.0426 8.34853 57.9036 8.40778 57.78 8.49222C57.6565 8.57667 57.5508 8.68466 57.469 8.81L47.589 23.91C47.4671 24.0804 47.3944 24.281 47.379 24.4899C47.3636 24.6988 47.4059 24.9079 47.5015 25.0944C47.597 25.2808 47.742 25.4373 47.9206 25.5468C48.0992 25.6563 48.3045 25.7145 48.514 25.715H68.331C68.5523 25.7164 68.769 25.6524 68.954 25.531C69.207 25.3655 69.3839 25.1063 69.4458 24.8103C69.5077 24.5144 69.4495 24.206 69.284 23.953L59.384 8.826H59.388ZM62.423 17.626L58.423 11.511L50.623 23.434H66.223L62.423 17.626ZM41.414 40.615H75.428V74.63H41.414V40.615ZM58.666 48.425C58.619 48.425 58.573 48.425 58.527 48.425C58.481 48.425 58.457 48.425 58.422 48.425C58.387 48.425 58.354 48.425 58.322 48.425C55.8905 48.4705 53.5753 49.4742 51.8799 51.2177C50.1845 52.9613 49.2462 55.3038 49.2689 57.7356C49.2916 60.1675 50.2736 62.492 52.0013 64.2036C53.729 65.9152 56.0626 66.8754 58.4945 66.8754C60.9264 66.8754 63.26 65.9152 64.9877 64.2036C66.7154 62.492 67.6974 60.1675 67.7201 57.7356C67.7428 55.3038 66.8045 52.9613 65.1091 51.2177C63.4137 49.4742 61.0975 48.4705 58.666 48.425ZM63.454 52.861C62.4178 51.7641 61.0514 51.0361 59.563 50.788V56.488H65.263C65.0354 55.1279 64.4069 53.8667 63.458 52.866L63.454 52.861ZM57.282 50.788C56.027 50.9981 54.8541 51.5499 53.892 52.3827C52.9299 53.2155 52.2157 54.2972 51.8278 55.5091C51.4399 56.721 51.3933 58.0164 51.6931 59.253C51.9929 60.4897 52.6275 61.6199 53.5273 62.5197C54.4271 63.4195 55.5573 64.0541 56.794 64.3539C58.0306 64.6536 59.326 64.6071 60.5379 64.2192C61.7498 63.8313 62.8315 63.1171 63.6643 62.155C64.4971 61.1929 65.0489 60.02 65.259 58.765H58.422C58.1196 58.7647 57.8296 58.6444 57.6158 58.4305C57.4021 58.2165 57.282 57.9264 57.282 57.624V50.788ZM0 40.615H34.014V74.63H0V40.615ZM18.349 49.045V46.83C18.3402 46.5334 18.2162 46.2518 18.0033 46.0451C17.7903 45.8384 17.5053 45.7228 17.2085 45.7228C16.9117 45.7228 16.6266 45.8384 16.4137 46.0451C16.2008 46.2518 16.0768 46.5334 16.068 46.83V48.99C14.1703 49.1969 12.3935 50.023 11.0123 51.3407C9.63101 52.6583 8.72211 54.3941 8.426 56.28H6.214C5.91139 56.28 5.62117 56.4002 5.40719 56.6142C5.19321 56.8282 5.073 57.1184 5.073 57.421C5.073 57.7236 5.19321 58.0138 5.40719 58.2278C5.62117 58.4418 5.91139 58.562 6.214 58.562H8.375C8.58061 60.4602 9.40628 62.2376 10.7242 63.6192C12.042 65.0007 13.7786 65.9092 15.665 66.204V68.415C15.6605 68.5676 15.6866 68.7196 15.7419 68.8619C15.7972 69.0042 15.8805 69.134 15.9868 69.2436C16.0932 69.3531 16.2204 69.4402 16.3611 69.4997C16.5017 69.5591 16.6528 69.5898 16.8055 69.5898C16.9582 69.5898 17.1093 69.5591 17.2499 69.4997C17.3906 69.4402 17.5178 69.3531 17.6242 69.2436C17.7305 69.134 17.8138 69.0042 17.8691 68.8619C17.9244 68.7196 17.9505 68.5676 17.946 68.415V66.257C19.844 66.0514 21.6214 65.2259 23.0029 63.9082C24.3844 62.5905 25.293 60.8542 25.588 58.968H27.804C28.1063 58.968 28.3963 58.8479 28.6101 58.6341C28.8239 58.4203 28.944 58.1303 28.944 57.828C28.944 57.5257 28.8239 57.2357 28.6101 57.0219C28.3963 56.8081 28.1063 56.688 27.804 56.688H25.639C25.4331 54.7898 24.6074 53.0124 23.2896 51.6308C21.9718 50.2492 20.2353 49.3404 18.349 49.045ZM16.068 51.282C14.7764 51.4748 13.5743 52.0566 12.6217 52.9499C11.6691 53.8431 11.0113 55.0055 10.736 56.282H11.788C11.9378 56.282 12.0862 56.3115 12.2246 56.3689C12.3631 56.4262 12.4889 56.5102 12.5948 56.6162C12.7008 56.7221 12.7848 56.8479 12.8421 56.9864C12.8995 57.1248 12.929 57.2732 12.929 57.423C12.929 57.5728 12.8995 57.7212 12.8421 57.8596C12.7848 57.9981 12.7008 58.1239 12.5948 58.2298C12.4889 58.3358 12.3631 58.4198 12.2246 58.4771C12.0862 58.5345 11.9378 58.564 11.788 58.564H10.664C10.8568 59.8556 11.4386 61.0577 12.3319 62.0103C13.2251 62.9629 14.3875 63.6207 15.664 63.896V62.843C15.6595 62.6904 15.6856 62.5384 15.7409 62.3961C15.7962 62.2538 15.8795 62.124 15.9858 62.0144C16.0922 61.9049 16.2194 61.8178 16.3601 61.7583C16.5007 61.6989 16.6518 61.6682 16.8045 61.6682C16.9572 61.6682 17.1083 61.6989 17.2489 61.7583C17.3896 61.8178 17.5168 61.9049 17.6232 62.0144C17.7295 62.124 17.8128 62.2538 17.8681 62.3961C17.9234 62.5384 17.9495 62.6904 17.945 62.843V63.966C19.2367 63.7736 20.4391 63.1919 21.3918 62.2986C22.3444 61.4053 23.0021 60.2427 23.277 58.966H22.223C21.9207 58.966 21.6307 58.8459 21.4169 58.6321C21.2031 58.4183 21.083 58.1283 21.083 57.826C21.083 57.5237 21.2031 57.2337 21.4169 57.0199C21.6307 56.8061 21.9207 56.686 22.223 56.686H23.347C23.1553 55.3939 22.5739 54.191 21.6805 53.238C20.7871 52.2851 19.6241 51.6275 18.347 51.353V52.405C18.3515 52.5576 18.3254 52.7096 18.2701 52.8519C18.2148 52.9942 18.1315 53.124 18.0252 53.2336C17.9188 53.3431 17.7916 53.4302 17.6509 53.4897C17.5103 53.5491 17.3592 53.5798 17.2065 53.5798C17.0538 53.5798 16.9027 53.5491 16.7621 53.4897C16.6214 53.4302 16.4942 53.3431 16.3878 53.2336C16.2815 53.124 16.1982 52.9942 16.1429 52.8519C16.0876 52.7096 16.0615 52.5576 16.066 52.405V51.282H16.068ZM17.18 10.415C15.6553 10.375 14.164 10.8649 12.96 11.8011C11.756 12.7374 10.9138 14.0621 10.577 15.5496C10.2401 17.0371 10.4294 18.5954 11.1126 19.959C11.7958 21.3226 12.9306 22.4072 14.3238 23.028C15.7169 23.6487 17.2822 23.7673 18.7529 23.3634C20.2237 22.9595 21.5089 22.0583 22.3897 20.8131C23.2705 19.5679 23.6923 18.0559 23.5833 16.5346C23.4743 15.0133 22.8413 13.5769 21.792 12.47C21.1965 11.8405 20.4825 11.335 19.6911 10.9823C18.8996 10.6296 18.0462 10.4368 17.18 10.415ZM20.144 14.035C19.457 13.31 18.5399 12.8456 17.549 12.7209C16.558 12.5961 15.5544 12.8188 14.7092 13.3509C13.864 13.883 13.2293 14.6917 12.9134 15.6392C12.5975 16.5867 12.6198 17.6144 12.9765 18.5473C13.3333 19.4802 14.0024 20.2606 14.8699 20.7556C15.7374 21.2505 16.7497 21.4294 17.7343 21.2618C18.719 21.0942 19.615 20.5904 20.2699 19.8363C20.9248 19.0822 21.298 18.1244 21.326 17.126C21.3429 16.5582 21.2471 15.9928 21.0443 15.4622C20.8414 14.9317 20.5354 14.4466 20.144 14.035ZM20.365 6.64L19.705 4.405L14.987 4.278L14.208 6.472C13.8352 6.56923 13.468 6.68674 13.108 6.824C12.7459 6.96364 12.3914 7.12219 12.046 7.299L10.001 6.187L6.575 9.433L7.575 11.533C7.18835 12.2001 6.87359 12.9064 6.636 13.64L4.401 14.3L4.274 19.02L6.468 19.799C6.66491 20.5472 6.94254 21.2718 7.296 21.96L6.183 24.004L9.429 27.429L11.529 26.429C11.8626 26.6227 12.2064 26.7983 12.559 26.955C12.9111 27.1117 13.2713 27.2495 13.638 27.368L14.298 29.603L19.016 29.73L19.795 27.536C20.1677 27.438 20.5349 27.3201 20.895 27.183C21.2575 27.0444 21.612 26.8858 21.957 26.708L24.002 27.821L27.428 24.575L26.428 22.475C26.6216 22.1409 26.7971 21.7968 26.954 21.444C27.1105 21.0922 27.2484 20.7323 27.367 20.366L29.601 19.706L29.727 14.988L27.533 14.208C27.4363 13.8351 27.3187 13.4678 27.181 13.108C27.0421 12.7454 26.8839 12.3906 26.707 12.045L27.819 10.001L24.573 6.574L22.473 7.574C22.1389 7.38057 21.7951 7.20434 21.443 7.046C21.0912 6.88913 20.731 6.75191 20.364 6.635L20.365 6.64ZM20.517 9.128C20.0817 8.93304 19.6308 8.77515 19.169 8.656L18.541 8.494L17.991 6.633L16.581 6.594L15.931 8.423L15.296 8.551C14.8276 8.64561 14.368 8.77942 13.922 8.951C13.4758 9.12281 13.0443 9.33084 12.632 9.573L12.078 9.9L10.37 8.971L9.345 9.943L10.181 11.697L9.823 12.232C9.55692 12.6319 9.32478 13.0534 9.129 13.492C8.93374 13.9268 8.77583 14.3774 8.657 14.839L8.495 15.469L6.633 16.017L6.595 17.427L8.424 18.077L8.551 18.713C8.6467 19.1815 8.78047 19.6413 8.951 20.088C9.12219 20.5342 9.33024 20.9653 9.573 21.377L9.9 21.93L8.971 23.638L9.941 24.663L11.696 23.828L12.233 24.185C13.0303 24.7172 13.9112 25.112 14.839 25.353L15.468 25.515L16.017 27.376L17.427 27.414L18.077 25.585L18.712 25.457C19.6503 25.264 20.5504 24.9177 21.376 24.432L21.93 24.106L23.638 25.034L24.663 24.064L23.831 22.315L24.188 21.778C24.4537 21.3786 24.6858 20.9578 24.882 20.52C25.0774 20.0848 25.2356 19.6339 25.355 19.172L25.517 18.543L27.378 17.993L27.417 16.583L25.587 15.934L25.46 15.299C25.3649 14.8304 25.2311 14.3705 25.06 13.924C24.889 13.4777 24.6809 13.0466 24.438 12.635L24.111 12.081L25.04 10.372L24.07 9.347L22.315 10.183L21.778 9.826C21.3773 9.5577 20.9545 9.32418 20.514 9.128H20.517Z" fill="white"/>
</svg>
