<svg width="29" height="24" viewBox="0 0 29 24" fill="none" xmlns="http://www.w3.org/2000/svg">
<path d="M25.8727 5.83047C25.8903 6.0847 25.8903 6.33871 25.8903 6.59519C25.8903 14.4091 19.9416 23.4209 9.06455 23.4209V23.4164C5.8512 23.4209 2.70444 22.5005 0 20.7651C0.467256 20.8214 0.936765 20.8496 1.4074 20.8507C4.07067 20.8528 6.65734 19.9596 8.75177 18.3144C7.51775 18.2911 6.32187 17.8828 5.33132 17.1465C4.34077 16.4101 3.60508 15.3827 3.22711 14.2078C4.11366 14.3789 5.027 14.3435 5.89711 14.1058C3.13816 13.5484 1.15339 11.1245 1.15339 8.30952V8.23453C1.97583 8.69271 2.89632 8.94656 3.83736 8.97471C1.23851 7.2381 0.437982 3.7813 2.00706 1.07887C3.49168 2.90571 5.34397 4.39982 7.44364 5.46416C9.5433 6.5285 11.8434 7.13927 14.1945 7.25678C13.9601 6.24768 13.9948 5.19474 14.2951 4.20325C14.5953 3.21176 15.1506 2.31648 15.9054 1.60692C18.2872 -0.63208 22.0331 -0.517236 24.2719 1.86341C25.5962 1.60191 26.8663 1.11635 28.0273 0.427635C27.5858 1.79691 26.662 2.95923 25.4278 3.69843C26.6 3.56022 27.7447 3.24632 28.8235 2.76729C28.0299 3.95573 27.0307 4.99304 25.8727 5.83047Z" fill="#1D9BF0"/>
</svg>
