<svg width="20" height="20" viewBox="0 0 20 20" fill="none" xmlns="http://www.w3.org/2000/svg">
<path d="M13.3837 17.9548C13.6181 17.7204 13.7497 17.4025 13.7497 17.0711C13.7497 16.7396 13.6181 16.4217 13.3837 16.1873L7.19625 9.99982L13.3838 3.81232C13.6114 3.57657 13.7374 3.26081 13.7346 2.93307C13.7317 2.60532 13.6003 2.2918 13.3685 2.06004C13.1368 1.82828 12.8232 1.69682 12.4955 1.69398C12.1678 1.69113 11.852 1.81712 11.6163 2.04482L4.545 9.11607C4.31066 9.35048 4.17902 9.66836 4.17902 9.99982C4.17902 10.3313 4.31066 10.6492 4.545 10.8836L11.6162 17.9548C11.8507 18.1892 12.1685 18.3208 12.5 18.3208C12.8315 18.3208 13.1493 18.1892 13.3837 17.9548Z" fill="white"/>
</svg>
