<svg width="20" height="20" viewBox="0 0 20 20" fill="none" xmlns="http://www.w3.org/2000/svg">
<path d="M6.61625 2.04494C6.38191 2.27935 6.25027 2.59723 6.25027 2.92869C6.25027 3.26014 6.38191 3.57803 6.61625 3.81244L12.8038 9.99994L6.61625 16.1874C6.38855 16.4232 6.26256 16.7389 6.26541 17.0667C6.26826 17.3944 6.39972 17.708 6.63148 17.9397C6.86324 18.1715 7.17675 18.3029 7.5045 18.3058C7.83225 18.3086 8.148 18.1826 8.38375 17.9549L15.455 10.8837C15.6893 10.6493 15.821 10.3314 15.821 9.99994C15.821 9.66848 15.6893 9.3506 15.455 9.11619L8.38375 2.04494C8.14934 1.8106 7.83146 1.67896 7.5 1.67896C7.16855 1.67896 6.85066 1.8106 6.61625 2.04494Z" fill="#093A01"/>
</svg>
