<svg width="20" height="20" viewBox="0 0 20 20" fill="none" xmlns="http://www.w3.org/2000/svg">
<path d="M6.61625 2.04518C6.38191 2.27959 6.25027 2.59748 6.25027 2.92893C6.25027 3.26039 6.38191 3.57827 6.61625 3.81268L12.8038 10.0002L6.61625 16.1877C6.38855 16.4234 6.26256 16.7392 6.26541 17.0669C6.26826 17.3947 6.39972 17.7082 6.63148 17.94C6.86324 18.1717 7.17675 18.3032 7.5045 18.306C7.83225 18.3089 8.148 18.1829 8.38375 17.9552L15.455 10.8839C15.6893 10.6495 15.821 10.3316 15.821 10.0002C15.821 9.66873 15.6893 9.35084 15.455 9.11643L8.38375 2.04518C8.14934 1.81084 7.83146 1.6792 7.5 1.6792C7.16855 1.6792 6.85066 1.81084 6.61625 2.04518Z" fill="white"/>
</svg>
