<svg width="29" height="29" viewBox="0 0 29 29" fill="none" xmlns="http://www.w3.org/2000/svg">
<g clip-path="url(#clip0_29_1837)">
<path d="M28.8235 14.4118C28.8235 6.45242 22.3711 0 14.4118 0C6.45242 0 0 6.4523 0 14.4118C0 21.605 5.2702 27.5673 12.1599 28.6485V18.5777H8.50069V14.4118H12.1599V11.2367C12.1599 7.62472 14.3116 5.6296 17.6034 5.6296C19.1803 5.6296 20.8295 5.91108 20.8295 5.91108V9.45772H19.0123C17.2218 9.45772 16.6636 10.5687 16.6636 11.7084V14.4118H20.6606L20.0217 18.5777H16.6636V28.6485C23.5533 27.5673 28.8235 21.6052 28.8235 14.4118Z" fill="#1877F2"/>
</g>
<defs>
<clipPath id="clip0_29_1837">
<rect width="28.8235" height="28.8235" fill="white"/>
</clipPath>
</defs>
</svg>
