<svg width="75" height="94" viewBox="0 0 75 94" fill="none" xmlns="http://www.w3.org/2000/svg">
<path d="M61.2618 38.216C61.0729 37.8382 60.6886 37.6001 60.2677 37.6001H13.6231C13.2022 37.6001 12.8179 37.8382 12.6291 38.216L7.07612 49.3515C6.90408 49.6965 6.92293 50.1066 7.12521 50.4352C7.32849 50.7623 7.68497 50.9627 8.07019 50.9627H12.5125V67.6659C12.5125 70.7361 15.0034 73.2336 18.0655 73.2336H55.8254C58.8874 73.2336 61.3783 70.7361 61.3783 67.6659V50.9627H65.8206C66.2059 50.9627 66.5624 50.7623 66.7656 50.4347C66.9679 50.1061 66.9868 49.6965 66.8147 49.351L61.2618 38.216ZM14.3088 39.8272H47.3649L42.9225 48.7355H9.86642L14.3088 39.8272ZM14.7332 67.6658V50.9626H43.6084C44.0293 50.9626 44.4136 50.7245 44.6025 50.3467L48.0507 43.4308V71.006H18.0649C16.228 71.006 14.7332 69.5077 14.7332 67.6658ZM59.1566 67.6658C59.1566 69.5077 57.6618 71.0065 55.8248 71.0065H50.2719V43.4312L53.7202 50.3477C53.9091 50.725 54.2933 50.9631 54.7143 50.9631H59.1566V67.6658ZM55.4004 48.7355L50.9581 39.8272H59.581L64.0234 48.7355H55.4004Z" fill="white"/>
<path d="M31.3927 53.1897C27.7179 53.1897 24.7292 56.1863 24.7292 59.871C24.7292 62.2806 26.0252 64.4832 28.0843 65.6649C28.1889 66.1714 28.6352 66.5522 29.1716 66.5522H33.614C34.1504 66.5522 34.5966 66.1714 34.7012 65.6649C36.7603 64.4832 38.0563 62.2804 38.0563 59.871C38.0563 56.1863 35.0676 53.1897 31.3927 53.1897ZM33.1687 63.9489C32.9798 64.0314 32.8221 64.1626 32.7076 64.3252H32.5033V60.9845H33.6139V58.7574H29.1715V60.9845H30.2821V64.3252H30.0778C29.9633 64.1626 29.8057 64.0314 29.6168 63.9489C27.9964 63.2375 26.9503 61.6373 26.9503 59.871C26.9503 57.4147 28.9429 55.4168 31.3927 55.4168C33.8424 55.4168 35.835 57.4147 35.835 59.871C35.835 61.6373 34.7889 63.2375 33.1687 63.9489Z" fill="white"/>
<path d="M29.1716 67.6658H33.6139V69.8929H29.1716V67.6658Z" fill="white"/>
<path d="M20.2869 58.7573H22.508V60.9844H20.2869V58.7573Z" fill="white"/>
<path d="M40.2774 58.7573H42.4986V60.9844H40.2774V58.7573Z" fill="white"/>
<path d="M22.753 52.7836L24.3237 51.2087L25.8944 52.7836L24.3237 54.3585L22.753 52.7836Z" fill="white"/>
<path d="M36.8885 66.957L38.4592 65.3821L40.0299 66.957L38.4592 68.5318L36.8885 66.957Z" fill="white"/>
<path d="M22.753 66.957L24.3237 65.3821L25.8944 66.957L24.3237 68.5318L22.753 66.957Z" fill="white"/>
<path d="M36.8885 52.7836L38.4592 51.2087L40.0299 52.7836L38.4592 54.3585L36.8885 52.7836Z" fill="white"/>
<path d="M20.2869 35.3728C23.3489 35.3728 25.8398 32.8752 25.8398 29.805C25.8398 26.7348 23.3489 24.2373 20.2869 24.2373C17.2248 24.2373 14.7339 26.7348 14.7339 29.805C14.7339 32.8752 17.2248 35.3728 20.2869 35.3728ZM20.2869 26.4644C22.1238 26.4644 23.6186 27.9632 23.6186 29.805C23.6186 31.6469 22.1238 33.1457 20.2869 33.1457C18.4499 33.1457 16.9551 31.6469 16.9551 29.805C16.9551 27.9632 18.4499 26.4644 20.2869 26.4644Z" fill="white"/>
<path d="M52.4926 35.3728C55.5546 35.3728 58.0455 32.8752 58.0455 29.805C58.0455 26.7348 55.5546 24.2373 52.4926 24.2373C49.4306 24.2373 46.9397 26.7348 46.9397 29.805C46.9397 32.8752 49.4306 35.3728 52.4926 35.3728ZM52.4926 26.4644C54.3296 26.4644 55.8244 27.9632 55.8244 29.805C55.8244 31.6469 54.3296 33.1457 52.4926 33.1457C50.6556 33.1457 49.1608 31.6469 49.1608 29.805C49.1608 27.9632 50.6556 26.4644 52.4926 26.4644Z" fill="white"/>
<path d="M19.175 22.0103H21.3962C21.3962 14.642 15.4178 8.64771 8.06915 8.64771V10.8748C14.1927 10.8748 19.175 15.8704 19.175 22.0103Z" fill="white"/>
<path d="M51.3833 22.0103H53.6044C53.6044 14.0286 60.0815 7.53422 68.0421 7.53422V5.30713C58.8564 5.30713 51.3833 12.8002 51.3833 22.0103Z" fill="white"/>
<path d="M35.8351 16.4427H38.0562C38.0562 8.46089 31.5792 1.96655 23.6186 1.96655V4.19365C30.3545 4.19365 35.8351 9.68884 35.8351 16.4427Z" fill="white"/>
<path d="M45.8291 15.3291C45.8291 10.417 49.8148 6.4207 54.7138 6.4207V4.1936C48.5902 4.1936 43.6079 9.18917 43.6079 15.3291H45.8291Z" fill="white"/>
<path d="M8.06915 18.6697C11.1312 18.6697 13.6221 21.1672 13.6221 24.2375H15.8433C15.8433 19.9394 12.3558 16.4426 8.06915 16.4426L8.06915 18.6697Z" fill="white"/>
<path d="M26.9504 19.7833H29.1716C29.1716 9.95979 21.1996 1.96655 11.4022 1.96655V4.19365C19.976 4.19365 26.9504 11.1866 26.9504 19.7833Z" fill="white"/>
<path d="M3.62744 8.64771H5.84861V10.8748H3.62744V8.64771Z" fill="white"/>
<path d="M3.62744 16.4426H5.84861V18.6697H3.62744V16.4426Z" fill="white"/>
<path d="M6.95984 1.96655H9.18101V4.19365H6.95984V1.96655Z" fill="white"/>
<path d="M2.51688 1.96655H4.73805V4.19365H2.51688V1.96655Z" fill="white"/>
<path d="M26.9504 22.0103H29.1715V24.2373H26.9504V22.0103Z" fill="white"/>
<path d="M43.6079 17.5562H45.8291V19.7832H43.6079V17.5562Z" fill="white"/>
<path d="M70.262 5.30713H72.4831V7.53422H70.262V5.30713Z" fill="white"/>
<path d="M44.7198 4.19365V1.96655C41.0449 1.96655 38.0562 4.9632 38.0562 8.64784H40.2774C40.2774 6.19154 42.27 4.19365 44.7198 4.19365Z" fill="white"/>
<path d="M45.8291 22.0103H48.0502V24.2373H45.8291V22.0103Z" fill="white"/>
<path d="M35.8351 18.6697H38.0563V20.8968H35.8351V18.6697Z" fill="white"/>
<path d="M35.8351 24.3494C33.3041 24.8674 31.3927 27.1154 31.3927 29.8048C31.3927 32.875 33.8836 35.3725 36.9457 35.3725C40.0077 35.3725 42.4986 32.875 42.4986 29.8048C42.4986 27.1169 40.5872 24.8674 38.0562 24.3494V23.1235H35.8351V24.3494ZM40.2774 29.8048C40.2774 31.6467 38.7826 33.1454 36.9457 33.1454C35.1087 33.1454 33.6139 31.6467 33.6139 29.8048C33.6139 27.9629 35.1087 26.4642 36.9457 26.4642C38.7826 26.4642 40.2774 27.9629 40.2774 29.8048Z" fill="white"/>
</svg>
