<svg width="30" height="30" viewBox="0 0 30 30" fill="none" xmlns="http://www.w3.org/2000/svg">
<path d="M25.8292 23.4639C25.8292 23.4639 24.3809 24.8864 24.0259 25.3035C23.4477 25.9204 22.7665 26.2118 21.8735 26.2118C21.7876 26.2118 21.696 26.2118 21.6101 26.2061C19.9099 26.0975 18.3299 25.4348 17.1449 24.8693C13.9048 23.3039 11.0597 21.0816 8.69539 18.2651C6.7433 15.9171 5.43808 13.7462 4.57367 11.4153C4.04128 9.99281 3.84664 8.8845 3.93251 7.83904C3.98975 7.17063 4.24736 6.61647 4.72251 6.1423L6.6746 4.19419C6.95511 3.9314 7.25279 3.78857 7.54475 3.78857C7.9054 3.78857 8.19735 4.00567 8.38054 4.18848C8.38626 4.19419 8.39199 4.19991 8.39771 4.20562C8.74692 4.53125 9.07894 4.86832 9.42815 5.22823C9.60561 5.41105 9.7888 5.59386 9.97199 5.78239L11.5348 7.34201C12.1416 7.94758 12.1416 8.50745 11.5348 9.11302C11.3688 9.2787 11.2085 9.44437 11.0425 9.60433C10.5616 10.0956 10.9394 9.71866 10.4413 10.1643C10.4299 10.1757 10.4184 10.1814 10.4127 10.1928C9.92039 10.6841 10.012 11.164 10.115 11.4897C10.1207 11.5068 10.1265 11.5239 10.1322 11.5411C10.5386 12.5237 11.1111 13.4492 11.9813 14.5518L11.987 14.5575C13.567 16.4999 15.2328 18.0138 17.0704 19.1736C17.3052 19.3221 17.5456 19.4421 17.7746 19.5563C17.9807 19.6592 18.1753 19.7563 18.3413 19.8591C18.3642 19.8705 18.3871 19.8877 18.41 19.8991C18.6046 19.9962 18.7878 20.0419 18.9767 20.0419C19.4519 20.0419 19.7496 19.7448 19.8469 19.6477L20.969 18.5279C21.1636 18.3337 21.4728 18.0995 21.8334 18.0995C22.1883 18.0995 22.4803 18.3223 22.6577 18.5165C22.6635 18.5222 22.6635 18.5222 22.6692 18.5279L25.8235 21.6757C26.4131 22.2585 25.8292 23.4639 25.8292 23.4639Z" stroke="white" stroke-width="1.5" stroke-linecap="round" stroke-linejoin="round"/>
</svg>
