<svg width="29" height="29" viewBox="0 0 29 29" fill="none" xmlns="http://www.w3.org/2000/svg">
<g clip-path="url(#clip0_29_1832)">
<path d="M22.068 0H6.75551C3.02455 0 0 3.02455 0 6.75551V22.068C0 25.799 3.02455 28.8235 6.75551 28.8235H22.068C25.799 28.8235 28.8235 25.799 28.8235 22.068V6.75551C28.8235 3.02455 25.799 0 22.068 0Z" fill="url(#paint0_radial_29_1832)"/>
<path d="M22.068 0H6.75551C3.02455 0 0 3.02455 0 6.75551V22.068C0 25.799 3.02455 28.8235 6.75551 28.8235H22.068C25.799 28.8235 28.8235 25.799 28.8235 22.068V6.75551C28.8235 3.02455 25.799 0 22.068 0Z" fill="url(#paint1_radial_29_1832)"/>
<path d="M14.4128 3.15234C11.355 3.15234 10.9712 3.16574 9.77029 3.22035C8.57164 3.27529 7.75343 3.46501 7.03757 3.74345C6.29694 4.03101 5.66879 4.41574 5.04301 5.04175C4.41666 5.66765 4.03193 6.2958 3.74347 7.03609C3.46424 7.75217 3.2743 8.57072 3.22037 9.76881C3.16666 10.9698 3.15259 11.3538 3.15259 14.4116C3.15259 17.4695 3.1661 17.8521 3.22059 19.053C3.27576 20.2517 3.46548 21.0699 3.7437 21.7857C4.03148 22.5264 4.41621 23.1545 5.04222 23.7803C5.66789 24.4067 6.29604 24.7923 7.03611 25.0798C7.75253 25.3583 8.57085 25.548 9.76928 25.6029C10.9703 25.6576 11.3538 25.6709 14.4114 25.6709C17.4696 25.6709 17.8521 25.6576 19.053 25.6029C20.2517 25.548 21.0708 25.3583 21.7872 25.0798C22.5275 24.7923 23.1548 24.4067 23.7803 23.7803C24.4067 23.1545 24.7913 22.5264 25.0799 21.7861C25.3566 21.0699 25.5467 20.2515 25.603 19.0532C25.6569 17.8523 25.671 17.4695 25.671 14.4116C25.671 11.3538 25.6569 10.97 25.603 9.76903C25.5467 8.57038 25.3566 7.75229 25.0799 7.03643C24.7913 6.2958 24.4067 5.66765 23.7803 5.04175C23.1541 4.41551 22.5277 4.03079 21.7865 3.74356C21.0688 3.46501 20.2501 3.27518 19.0515 3.22035C17.8504 3.16574 17.4681 3.15234 14.4093 3.15234H14.4128ZM13.4027 5.18136C13.7026 5.18091 14.0371 5.18136 14.4128 5.18136C17.4191 5.18136 17.7753 5.19217 18.9625 5.2461C20.0603 5.29632 20.6561 5.47973 21.053 5.63387C21.5785 5.83789 21.9531 6.08187 22.3469 6.47606C22.741 6.87013 22.9849 7.2454 23.1894 7.77086C23.3436 8.16719 23.5272 8.76302 23.5772 9.8608C23.6311 11.0477 23.6429 11.4042 23.6429 14.4091C23.6429 17.4139 23.6311 17.7705 23.5772 18.9573C23.527 20.0551 23.3436 20.6509 23.1894 21.0474C22.9854 21.5728 22.741 21.947 22.3469 22.3408C21.9528 22.7349 21.5787 22.9788 21.053 23.1829C20.6566 23.3377 20.0603 23.5207 18.9625 23.5709C17.7756 23.6248 17.4191 23.6365 14.4128 23.6365C11.4064 23.6365 11.05 23.6248 9.86318 23.5709C8.76541 23.5202 8.16957 23.3368 7.77235 23.1827C7.24699 22.9785 6.87161 22.7347 6.47754 22.3406C6.08347 21.9465 5.83959 21.5722 5.63501 21.0465C5.48088 20.65 5.29724 20.0542 5.24725 18.9564C5.19332 17.7695 5.18251 17.413 5.18251 14.4062C5.18251 11.3996 5.19332 11.0449 5.24725 9.85798C5.29746 8.76021 5.48088 8.16437 5.63501 7.76749C5.83914 7.24202 6.08347 6.86675 6.47765 6.47268C6.87172 6.07861 7.24699 5.83462 7.77246 5.63015C8.16935 5.47534 8.76541 5.29238 9.86318 5.24194C10.9018 5.19499 11.3044 5.18091 13.4027 5.17855V5.18136ZM20.4229 7.05084C19.677 7.05084 19.0718 7.65546 19.0718 8.40149C19.0718 9.14741 19.677 9.75259 20.4229 9.75259C21.1689 9.75259 21.7741 9.14741 21.7741 8.40149C21.7741 7.65557 21.1689 7.05039 20.4229 7.05039V7.05084ZM14.4128 8.62949C11.2197 8.62949 8.63075 11.2184 8.63075 14.4116C8.63075 17.6049 11.2197 20.1926 14.4128 20.1926C17.606 20.1926 20.194 17.6049 20.194 14.4116C20.194 11.2185 17.6058 8.62949 14.4126 8.62949H14.4128ZM14.4128 10.6585C16.4855 10.6585 18.1659 12.3387 18.1659 14.4116C18.1659 16.4844 16.4855 18.1648 14.4128 18.1648C12.34 18.1648 10.6598 16.4844 10.6598 14.4116C10.6598 12.3387 12.34 10.6585 14.4128 10.6585Z" fill="#FEFEFE"/>
</g>
<defs>
<radialGradient id="paint0_radial_29_1832" cx="0" cy="0" r="1" gradientUnits="userSpaceOnUse" gradientTransform="translate(7.65625 31.0435) rotate(-90) scale(28.5663 26.5689)">
<stop stop-color="#FFDD55"/>
<stop offset="0.1" stop-color="#FFDD55"/>
<stop offset="0.5" stop-color="#FF543E"/>
<stop offset="1" stop-color="#C837AB"/>
</radialGradient>
<radialGradient id="paint1_radial_29_1832" cx="0" cy="0" r="1" gradientUnits="userSpaceOnUse" gradientTransform="translate(-4.82805 2.07631) rotate(78.681) scale(12.7693 52.6354)">
<stop stop-color="#3771C8"/>
<stop offset="0.128" stop-color="#3771C8"/>
<stop offset="1" stop-color="#6600FF" stop-opacity="0"/>
</radialGradient>
<clipPath id="clip0_29_1832">
<rect width="28.8235" height="28.8235" fill="white"/>
</clipPath>
</defs>
</svg>
