<svg width="780" height="1082" viewBox="0 0 780 1082" fill="none" xmlns="http://www.w3.org/2000/svg">
<path d="M1253.7 994.087C1252.83 999.684 1251.84 1005.43 1250.75 1011.18C1249.76 1016.94 1248.45 1023.01 1247.03 1029.09C1246.37 1032.05 1245.61 1035.01 1244.96 1037.96C1242.66 1047.34 1240.03 1057.02 1236.86 1067.05C1235.87 1070.34 1234.89 1073.79 1233.79 1077.08C1233.52 1078.11 1233.19 1079.14 1232.86 1080.16C1232.67 1080.78 1232.46 1081.39 1232.26 1082H1102.16L1064.08 1081.85H723.136L674.96 1081.76H674.811L624.056 1081.67H361.062L251.425 1081.51H53.1636C53.1636 1081.51 53.0985 1081.24 52.9591 1080.71C52.9219 1080.55 52.8801 1080.37 52.829 1080.16C52.6664 1079.52 52.4526 1078.66 52.1785 1077.55L52.0716 1077.23C52.0716 1077.23 52.0716 1077.23 52.0716 1077.07C52.0716 1077.07 51.9647 1076.9 51.9647 1076.74C51.528 1075.43 51.198 1073.94 50.7613 1072.14C50.5382 1071.31 50.3245 1070.32 49.9946 1069.34C49.9946 1069.18 49.9946 1069.18 49.9946 1069.01C49.8877 1068.84 49.8877 1068.84 49.8877 1068.84C48.3822 1062.98 46.5235 1055.34 44.3722 1046.11C44.1816 1045.28 43.9818 1044.43 43.7774 1043.58C42.165 1036.61 40.3947 1028.8 38.5081 1020.2C34.0241 999.335 28.8757 973.862 23.8481 945.103C21.8779 933.762 19.9077 921.933 18.0444 909.601C16.9478 902.483 15.8466 895.071 14.7918 887.59C14.4851 885.398 14.1877 883.2 13.8857 881.009C11.9527 866.995 10.1312 852.556 8.49099 837.803C6.33031 818.429 4.47167 798.512 3.05909 778.294C2.35746 768.37 1.76734 758.369 1.29338 748.32C1.27944 748.061 1.2655 747.789 1.25621 747.531C1.23762 747.259 1.22833 746.994 1.21439 746.721C0.568508 732.561 0.159606 718.304 0.0387941 704.06C-0.0587849 692.593 0.0248542 681.12 0.322238 669.682C0.535982 661.956 0.865892 654.23 1.1958 646.505C2.06937 630.07 3.37971 613.634 5.243 597.695C6.44648 586.849 7.97521 575.997 9.72699 565.48C13.9926 539.679 19.7962 515.03 27.4492 491.693C30.186 483.639 33.0298 475.753 36.2034 468.027C43.3127 450.441 50.5336 434.005 57.8706 418.561H57.9775C61.8063 410.347 65.6351 402.621 69.4639 395.217C83.7941 367.287 98.6431 354.516 113.312 333.81C287.046 123.142 476.375 418.561 627.067 143.95C723.136 -66.0612 985.521 -24.3314 1090.01 128.666C1091.98 131.625 1094.06 134.584 1096.03 137.871C1112.95 164.838 1126 196.333 1134.01 232.302C1140.18 260.001 1143.37 290.345 1143.03 323.321C1142.99 326.782 1142.92 330.286 1142.8 333.81C1142.32 348.849 1141.12 364.412 1139.14 380.491C1137.84 391.141 1136.2 402.014 1134.21 413.132C1129.39 439.756 1122.61 467.532 1113.64 496.948C1112.76 499.739 1111.89 502.531 1111.01 505.329C1082.46 595.057 1105.98 648.794 1141.98 697.932C1164.19 728.339 1191 756.931 1213.32 791.114C1216.27 795.713 1219.12 800.312 1221.96 805.086C1223.06 806.984 1224.12 808.882 1225.18 810.808C1228.17 816.217 1231.03 821.737 1233.78 827.432C1235.17 830.384 1236.51 833.378 1237.8 836.428C1241.62 845.417 1245.02 854.838 1247.89 864.79C1249.89 871.727 1251.62 878.922 1253.07 886.389C1254.92 895.895 1256.29 905.86 1257.1 916.343C1258.93 939.527 1258.05 965.23 1253.7 994.087Z" fill="#DCEAFF"/>
</svg>
