<svg width="78" height="73" viewBox="0 0 78 73" fill="none" xmlns="http://www.w3.org/2000/svg">
<path d="M61.2941 33.6938H16.7137C13.7599 33.6938 10.9271 32.5112 8.83848 30.4061C6.74983 28.301 5.57644 25.4459 5.57644 22.4689C5.57644 19.4918 6.74983 16.6367 8.83848 14.5317C10.9271 12.4266 13.7599 11.244 16.7137 11.244H45.0873C45.6554 12.8847 46.7159 14.3068 48.1217 15.313C49.5275 16.3192 51.2091 16.8597 52.9333 16.8597C54.6576 16.8597 56.3391 16.3192 57.7449 15.313C59.1507 14.3068 60.2112 12.8847 60.7793 11.244H75.2079C75.9484 11.244 76.6586 10.9475 77.1822 10.4197C77.7058 9.89199 78 9.17622 78 8.42987C78 7.68353 77.7058 6.96776 77.1822 6.44001C76.6586 5.91227 75.9484 5.61579 75.2079 5.61579H60.7793C60.2112 3.97502 59.1507 2.55299 57.7449 1.54678C56.3391 0.540563 54.6576 0 52.9333 0C51.2091 0 49.5275 0.540563 48.1217 1.54678C46.7159 2.55299 45.6554 3.97502 45.0873 5.61579H16.7137C12.281 5.61579 8.02977 7.39055 4.89534 10.5496C1.76091 13.7087 0 17.9934 0 22.461C0 26.9286 1.76091 31.2133 4.89534 34.3724C8.02977 37.5315 12.281 39.3062 16.7137 39.3062H61.2785C64.2323 39.3062 67.0651 40.4888 69.1537 42.5939C71.2424 44.699 72.4158 47.5541 72.4158 50.5311C72.4158 53.5082 71.2424 56.3633 69.1537 58.4683C67.0651 60.5734 64.2323 61.756 61.2785 61.756H32.9205C32.3524 60.1153 31.2919 58.6932 29.8861 57.687C28.4803 56.6808 26.7987 56.1402 25.0745 56.1402C23.3502 56.1402 21.6687 56.6808 20.2629 57.687C18.8571 58.6932 17.7966 60.1153 17.2285 61.756H2.79992C2.0594 61.756 1.34922 62.0525 0.825592 62.5803C0.301968 63.108 0.00779903 63.8238 0.00779903 64.5701C0.00779903 65.3165 0.301968 66.0322 0.825592 66.56C1.34922 67.0877 2.0594 67.3842 2.79992 67.3842H17.2285C17.7966 69.025 18.8571 70.447 20.2629 71.4532C21.6687 72.4594 23.3502 73 25.0745 73C26.7987 73 28.4803 72.4594 29.8861 71.4532C31.2919 70.447 32.3524 69.025 32.9205 67.3842H61.2785C65.7112 67.3842 69.9624 65.6095 73.0969 62.4504C76.2313 59.2913 77.9922 55.0066 77.9922 50.539C77.9922 46.0714 76.2313 41.7867 73.0969 38.6276C69.9624 35.4685 65.7112 33.6938 61.2785 33.6938H61.2941ZM52.9333 5.63151C53.6718 5.60441 54.3906 5.87407 54.9318 6.38117C55.473 6.88828 55.7921 7.59129 55.819 8.33555C55.8459 9.0798 55.5784 9.80435 55.0752 10.3498C54.5721 10.8952 53.8745 11.2169 53.1361 11.244H52.9333C52.1949 11.244 51.4867 10.9483 50.9645 10.422C50.4423 9.89577 50.149 9.18199 50.149 8.43773C50.149 7.69348 50.4423 6.9797 50.9645 6.45343C51.4867 5.92716 52.1949 5.63151 52.9333 5.63151ZM25.0745 67.3842C24.5231 67.3858 23.9838 67.2223 23.5247 66.9146C23.0656 66.6068 22.7075 66.1686 22.4958 65.6555C22.2841 65.1424 22.2283 64.5775 22.3355 64.0325C22.4427 63.4874 22.708 62.9866 23.0979 62.5937C23.4878 62.2008 23.9846 61.9333 24.5254 61.8253C25.0663 61.7173 25.6267 61.7735 26.1358 61.9869C26.6449 62.2003 27.0797 62.5612 27.385 63.0238C27.6904 63.4865 27.8526 64.0302 27.851 64.5858C27.849 65.3274 27.5558 66.0379 27.0355 66.5623C26.5153 67.0866 25.8102 67.3821 25.0745 67.3842Z" fill="white"/>
</svg>
