<svg width="176" height="64" fill="none" xmlns="http://www.w3.org/2000/svg"><g filter="url('#filter0_b_29_1787')"><path d="M0 20C0 8.954 8.954 0 20 0h136c11.046 0 20 8.954 20 20v24c0 11.046-8.954 20-20 20H20C8.954 64 0 55.046 0 44V20Z" fill="url('#paint0_linear_29_1787')"/><path d="M1 20C1 9.507 9.507 1 20 1h136c10.493 0 19 8.507 19 19v24c0 10.493-8.507 19-19 19H20C9.507 63 1 54.493 1 44V20Z" stroke="url('#paint1_linear_29_1787')" stroke-width="2"/></g><defs><linearGradient id="paint0_linear_29_1787" x1="-14.576" y1="-17.684" x2="113.956" y2="110.403" gradientUnits="userSpaceOnUse"><stop stop-color="#EFEFEF" stop-opacity=".6"/><stop offset="1" stop-color="#EFEFEF" stop-opacity=".2"/></linearGradient><linearGradient id="paint1_linear_29_1787" x1="-7.288" y1="-17.684" x2="104.432" y2="121.462" gradientUnits="userSpaceOnUse"><stop stop-color="#DDFCA9" stop-opacity=".6"/><stop offset="1" stop-color="#D2EFA3" stop-opacity=".1"/></linearGradient><filter id="filter0_b_29_1787" x="-50" y="-50" width="276" height="164" filterUnits="userSpaceOnUse" color-interpolation-filters="sRGB"><feFlood flood-opacity="0" result="BackgroundImageFix"/><feGaussianBlur in="BackgroundImageFix" stdDeviation="25"/><feComposite in2="SourceAlpha" operator="in" result="effect1_backgroundBlur_29_1787"/><feBlend in="SourceGraphic" in2="effect1_backgroundBlur_29_1787" result="shape"/></filter></defs></svg>